# xmcd
#
# Track frame offsets:
#	150
#	15833
#	31117
#	43179
#	64208
#	81667
#	100443
#	112783
#	126741
#	143859
#	162704
#	177548
#	193998
#	211793
#	226530
#	242895
#	262695
#	276834
#	294925
#
# Disc length: 4146 seconds
#
# Revision: 0
# Processed by: cddbd v1.5.2PL0 Copyright (c) Steve Scherf et al.
# Submitted via: audiograbber 1.83.01
#
DISCID=14103013
DTITLE=Various Artist - Hott Country 140
DYEAR=2007
DGENRE=Country
TTITLE0=Faith Hill - Red Umbrella
TTITLE1=Aaron Lines - CHEAPER TO KEEP HER
TTITLE2=George Canyon - Ring Of Fire
TTITLE3=Sugarland - Stay
TTITLE4=Chuck Wicks - Stealing Cinderella
TTITLE5=Jessie Farrell - FELL RIGHT INTO YOU
TTITLE6=Willie Mack - Don't Waste Your Pretty
TTITLE7=Bucky Covington - IT'S GOOD TO BE US
TTITLE8=Damian Marshall - I KNOW WHAT LOVE IS
TTITLE9=Kenny Chesney - DON'T BLINK
TTITLE10=Paul Brandt - COME ON and GET SOME
TTITLE11=Gary Allan - WATCHING AIRPLANES
TTITLE12=Little Big Town - I'M WITH THE BAND
TTITLE13=Gretchen Wilson - You Don't Have To Go Home
TTITLE14=Shane Yellowbird - I Remember The Music
TTITLE15=Brad Paisley - Letter To Me
TTITLE16=Trace Adkins - I GOT MY GAME ON
TTITLE17=Martina McBride - For These Times
TTITLE18=Heartland - I LOVED HER FIRST ( 2006 )
EXTD=October 2007
EXTT0=
EXTT1=
EXTT2=
EXTT3=
EXTT4=
EXTT5=
EXTT6=
EXTT7=
EXTT8=
EXTT9=
EXTT10=
EXTT11=
EXTT12=
EXTT13=
EXTT14=
EXTT15=
EXTT16=
EXTT17=
EXTT18=
PLAYORDER=
